<svg xmlns:svg="http://www.w3.org/2000/svg" xmlns="http://www.w3.org/2000/svg" height="1000" width="1000" version="1.1"><path d="M0 500q0-207 146.5-353.5t353.5-146.5 353.5 146.5 146.5 353.5-146.5 353.5-353.5 146.5-353.5-146.5-146.5-353.5zm54.7 0q0 183.6 130.9 314.4t314.4 130.9 314.4-130.9 130.9-314.4-130.9-314.4-314.4-130.9-314.4 130.9-130.9 314.4zm140.6 107.4q-3.9-3.9 0-7.8 7.8-7.8 19.5-5.9t13.7 3.9q13.7 5.9 30.3 26.4t26.4 28.3q46.9 39.1 95.7 5.9 3.9-13.7 12.7-23.4t16.6-13.7 27.3-11.7q-64.4-5.9-104.5-22.5t-63.5-42q-31.2-35.2-38.1-91.8t8.8-103.5q11.7-29.3 33.2-52.7-15.6-48.8 5.9-111.3 62.5 3.9 113.3 43 97.7-25.4 203.1-2 13.7-9.8 42-24.4t71.3-16.6q7.8 21.5 10.7 50.8t-2.9 54.7q44.9 46.9 46.9 125 0 62.5-21.5 103.5t-76.2 68.4q-37.1 17.6-97.6 21.5 27.3 13.7 40 28.3t16.6 45.9l0 61.5t2 59.6q5.9 9.8 13.7 16.6t13.7 9.8 3.9 8.8-15.6 5.9q-33.2 0-52.7-23.4-5.9-9.8-5.9-23.4l0-93.7q0-15.6-7.8-22.5t-15.6-8.8l0 123q0 33.2 7.8 43t9.8 19.5q2 2-2.9 2.9t-16.6-2.9q-25.4-5.9-35.2-26.4t-9.8-43.9l0-121.1 -25.4 0 0 121.1q0 23.4-9.8 44.9-13.7 27.3-50.8 29.3-5.9-2-5.9-3.9 2-2 11.7-19.5 2-3.9 4.9-15.6t2.9-27.3l0-123q-7.8 2-14.6 8.8t-6.8 22.5l0 93.7q0 13.7-5.9 23.4-17.6 23.4-52.7 23.4-13.7 0-15.6-5.9-2-3.9 1-6.8t8.8-6.8 7.8-5.9q7.8-5.9 11.7-15.6 5.9-7.8 2.9-41t-1-43q-50.8 17.6-103.5-17.6-15.6-15.6-31.2-44.9-11.7-21.5-46.9-50.8z" fill="#fff"/></svg>