<svg xmlns:svg="http://www.w3.org/2000/svg" xmlns="http://www.w3.org/2000/svg" height="1000" width="1000" version="1"><path d="M195.9 0.3c-107.7 0-195.9 88.2-195.9 195.9l0 607.8c0 107.7 88.2 195.8 195.9 195.8l607.8 0c107.7 0 195.8-88.1 195.8-195.8l0-607.8c0-107.7-88.1-195.9-195.8-195.9l-607.8 0zm49.3 164.9c51.6 0 83.5 33.9 84.4 78.5 0 43.6-32.8 78.4-85.4 78.4l-1 0c-50.7 0-83.4-34.9-83.4-78.4 0-44.6 33.7-78.5 85.4-78.5zm445.1 208.3c99.3 0 173.8 64.9 173.8 204.4l0 260.4 -151 0 0-243c0-61.1-21.8-102.7-76.5-102.7-41.7 0-66.6 28.1-77.5 55.2-4 9.7-5 23.3-5 36.8l0 253.7 -151 0s2-411.6 0-454.2l151 0 0 64.3c20.1-30.9 55.9-75 136.1-75zm-521.6 10.7l151 0 0 454.2 -151 0 0-454.2z" fill="#fff"/></svg>